<?xml version="1.0" encoding="UTF-8"?>
<svg xmlns="http://www.w3.org/2000/svg" viewBox="0 0 209.52 426.33">
  <defs>
    <style>
      .cls-1 {
        stroke: #3b311b;
      }

      .cls-1, .cls-2, .cls-3, .cls-4, .cls-5 {
        fill: none;
        stroke-linecap: round;
        stroke-linejoin: round;
      }

      .cls-1, .cls-4, .cls-5 {
        stroke-width: 1.5px;
      }

      .cls-2, .cls-4 {
        stroke: #000;
      }

      .cls-3 {
        stroke: #b57bb8;
        stroke-width: 1.35px;
      }

      .cls-5 {
        stroke: #3f2b1b;
      }

      .cls-6 {
        fill: #526370;
      }

      .cls-6, .cls-7, .cls-8, .cls-9, .cls-10, .cls-11, .cls-12, .cls-13, .cls-14, .cls-15, .cls-16 {
        stroke-width: 0px;
      }

      .cls-7 {
        fill: #808ba0;
      }

      .cls-8 {
        fill: #191b1e;
      }

      .cls-9 {
        fill: #cfc7c8;
      }

      .cls-10 {
        fill: #de8c48;
      }

      .cls-11 {
        fill: #d7b195;
      }

      .cls-12 {
        fill: #b5b5b3;
      }

      .cls-13 {
        fill: #ff9e3f;
      }

      .cls-14 {
        fill: #e9cfac;
      }

      .cls-15 {
        fill: #fe94d2;
      }

      .cls-16 {
        fill: #f1aedd;
      }
    </style>
  </defs>
  <g id="color">
    <path class="cls-8" d="M21.4,375.17c-2.98-8.81-13.97-8.16-13.97-8.16l-6.51,24.7s-.38,2.79,2.2,1.29l18.28-17.83Z"/>
    <path class="cls-14" d="M7.44,367.01s9.57-1.86,13.97,8.16l45.04-43.45s-10.91,2.6-25.87-5.38c0,0-9.89-4.07-17.27-19.97l-15.86,60.64Z"/>
    <path class="cls-13" d="M22.43,307.85s6.86,14.37,23.22,21.11c13.29,5.47,19.95,4.2,19.95,4.2l112.53-192.54-43.2-25.25L22.43,307.85Z"/>
    <path class="cls-10" d="M46.99,329.05s102.51-140.78,110.04-200.85l20.87,12.25-112.88,192.38s-12.82-.62-18.03-3.78Z"/>
    <rect class="cls-9" x="132.64" y="116.99" width="53.65" height="11.52" transform="translate(83.73 -63.69) rotate(30.3)"/>
    <rect class="cls-7" x="143.25" y="96.43" width="50.04" height="23.2" transform="translate(77.5 -70.14) rotate(30.3)"/>
    <rect class="cls-6" x="181.53" y="106.43" width="9.13" height="23.39" transform="translate(85.03 -77.76) rotate(30.3)"/>
    <rect class="cls-6" x="162.23" y="95.71" width="11.54" height="23.62" transform="translate(77.21 -70.08) rotate(30.3)"/>
    <rect class="cls-6" x="146.13" y="85.99" width="9.13" height="23.15" transform="translate(69.82 -62.71) rotate(30.3)"/>
    <path class="cls-12" d="M152.45,111.99c1.77,4.47,1.79,14.67,1.79,14.67l25.72,14.73,5.81-9.95-33.33-19.46Z"/>
    <path class="cls-15" d="M154.07,85.58l40.45,24.2,13.62-23.91s3.01-7.24-5.05-13.19c-8.06-5.94-23-13.44-23-13.44,0,0-8.31-2.68-13.33,4.69-5.02,7.37-12.68,21.65-12.68,21.65Z"/>
    <path class="cls-16" d="M167.91,61.9c.87,7.08,1.98,8.6,7.3,11.09,5.33,2.49,6.12-1.38,11.58,4.75s6.48,7.67,11.53,8.13,7.45,4.66,7.45,4.66c0,0,5.68-7.59.26-14.37-5.42-6.78-24.08-15.67-24.08-15.67l-6.01-1.89-4.08,1.05-3.95,2.24Z"/>
    <path class="cls-11" d="M47.11,328.83c-8.29,14.59-30.72,40.13-30.72,40.13l2.63,1.68,2.39,4.54,19.39-18.61,25.09-25.23-14.87-1.01-3.9-1.49Z"/>
  </g>
  <g id="lineart">
    <path class="cls-3" d="M170.73,64.03h25.3c6.02,0,10.91,4.89,10.91,10.91v25.28h-47.13v-25.28c0-6.02,4.89-10.91,10.91-10.91Z" transform="translate(66.5 -81.31) rotate(30.3)"/>
    <polyline class="cls-5" points="22.43 307.85 134.92 115.38 178.13 140.63 65.64 333.1"/>
    <path class="cls-1" d="M23.24,306.48s8.54,27.25,43.2,25.25"/>
    <rect class="cls-4" x="132.62" y="117.06" width="53.93" height="11.52" transform="translate(83.78 -63.74) rotate(30.3)"/>
    <rect class="cls-2" x="143.3" y="96.46" width="50.04" height="22.97" transform="translate(77.47 -70.18) rotate(30.3)"/>
    <line class="cls-2" x1="178.52" y1="100.92" x2="167.09" y2="120.53"/>
    <line class="cls-2" x1="187.72" y1="106.3" x2="176.27" y2="125.9"/>
    <line class="cls-2" x1="168.57" y1="95.11" x2="157.12" y2="114.7"/>
    <line class="cls-2" x1="160.09" y1="90.16" x2="148.64" y2="109.75"/>
    <path class="cls-1" d="M66.44,331.73L3.06,393.11c-1.44,1.39-2.71.65-2.2-1.29l22.38-85.34"/>
    <path class="cls-4" d="M7.44,367.01l-6.6,25.3s-.08,2.1,1.83.93,18.74-18.07,18.74-18.07c-.26-.93-.72-1.81-1.28-2.62-2.17-3.15-5.97-5.37-9.78-5.72-.98-.09-1.98-.06-2.91.17"/>
  </g>
</svg>